<?xml version="1.0" encoding="UTF-8" standalone="no"?>
<svg
   xmlns:dc="http://purl.org/dc/elements/1.1/"
   xmlns:cc="http://creativecommons.org/ns#"
   xmlns:rdf="http://www.w3.org/1999/02/22-rdf-syntax-ns#"
   xmlns:svg="http://www.w3.org/2000/svg"
   xmlns="http://www.w3.org/2000/svg"
   id="svg2"
   viewBox="0 0 1833.1125 1607.6052"
   style="clip-rule:evenodd;fill-rule:evenodd;image-rendering:optimizeQuality;shape-rendering:geometricPrecision;text-rendering:geometricPrecision"
   version="1.1"
   height="16.076052mm"
   width="18.331125mm"
   xml:space="preserve"><metadata
     id="metadata16"><rdf:RDF><cc:Work
         rdf:about=""><dc:format>image/svg+xml</dc:format><dc:type
           rdf:resource="http://purl.org/dc/dcmitype/StillImage" /><dc:title></dc:title></cc:Work></rdf:RDF></metadata><defs
     id="defs4"><style
       id="style6"
       type="text/css"><![CDATA[
    .fil0 {fill:#2B2A29;fill-rule:nonzero}
   ]]></style></defs><g
     id="Layer_x0020_1"
     transform="translate(-15328.888,-13481.4)"
     style="fill:#4d4d4d;fill-opacity:1"><metadata
       id="CorelCorpID_0Corel-Layer" /><path
       id="path10"
       d="m 15684,13510 c -1,-44 -80,-34 -75,8 12,107 -66,228 -145,295 -2,-104 -6,-220 -18,-302 -8,-49 -82,-20 -74,26 35,222 20,485 20,672 0,47 73,32 73,-8 -1,-94 1,-251 1,-314 2,-1 14,-10 37,-20 87,99 179,224 208,346 9,39 70,26 67,-17 -20,-126 -145,-282 -217,-374 85,-82 124,-196 124,-313 z m 386,5 c -12,-45 -58,-37 -75,5 -42,109 -67,280 -95,361 -86,2 -87,56 -19,64 -24,82 -48,167 -57,245 -14,63 64,59 72,14 16,-92 29,-171 58,-258 28,0 123,-2 166,0 15,66 35,170 60,258 12,45 88,39 72,-15 -20,-69 -42,-145 -61,-243 86,-5 100,-77 -14,-71 -24,-78 -64,-220 -106,-361 z m -37,104 c 21,75 52,199 69,256 -33,-1 -106,2 -130,1 18,-55 37,-188 61,-257 z m 617,-111 c -90,-43 -181,-29 -248,43 -96,118 -118,494 -9,617 67,92 192,87 276,21 94,-70 81,-194 81,-324 -2,-37 -26,-42 -45,-41 -35,2 -116,1 -141,1 -32,0 -26,67 8,67 l 109,1 c 5,81 9,188 -52,240 -49,47 -134,47 -181,-16 -77,-114 -53,-421 -5,-495 49,-67 123,-76 183,-40 23,13 42,36 44,85 3,51 69,30 70,-8 1,-74 -39,-126 -89,-152 z m 406,-24 c -47,2 -159,3 -238,2 -53,-1 -45,66 -5,65 34,0 68,-2 90,-2 8,236 -3,433 -4,617 -12,-1 -54,-1 -85,1 -42,4 -28,70 -2,70 98,-5 168,3 255,0 33,-1 25,-71 -3,-69 -30,3 -68,1 -92,0 -4,-254 13,-360 4,-620 30,-1 74,-1 89,-2 34,-2 39,-63 -9,-61 z"
       class="fil0"
       style="fill:#4d4d4d;fill-rule:nonzero;fill-opacity:1" /><path
       id="path12"
       d="m 15377,14342 c -87,9 -39,80 11,68 -6,147 1,430 14,649 1,32 76,41 73,3 -15,-128 -15,-242 -17,-342 17,3 34,6 46,23 64,85 82,282 189,340 42,25 92,-35 53,-53 -93,-52 -123,-248 -181,-314 49,-4 86,-29 115,-57 75,-70 86,-208 -19,-274 -95,-64 -210,-51 -283,-44 z m 83,67 c 46,-9 99,-5 149,25 83,56 67,164 -19,212 -42,22 -81,28 -131,6 0,-103 0,-180 1,-243 z m 582,-75 c -33,-14 -70,-6 -68,32 -39,20 -78,55 -106,107 -79,156 -48,444 54,560 67,73 167,62 236,2 124,-110 123,-459 -4,-609 -37,-46 -65,-73 -111,-92 z m 82,173 c 73,150 61,360 0,453 -39,50 -109,70 -154,15 -68,-100 -104,-336 -41,-459 64,-114 135,-132 195,-10 z m 248,-154 c -14,-43 -85,-19 -72,25 68,195 95,459 198,670 18,49 73,55 82,-8 29,-193 54,-448 102,-663 13,-44 -59,-63 -70,-17 -38,176 -66,407 -84,590 -61,-144 -98,-420 -156,-596 z m 601,10 c -12,-45 -58,-37 -75,5 -42,109 -67,280 -95,361 -86,2 -87,56 -19,64 -24,82 -48,167 -57,245 -14,63 64,59 72,14 16,-92 29,-171 58,-258 28,0 123,-2 166,0 15,66 35,170 60,258 12,45 88,39 72,-15 -20,-69 -42,-145 -61,-243 86,-5 100,-77 -14,-71 -24,-78 -64,-220 -106,-361 z m -37,104 c 21,75 52,199 69,256 -33,-1 -106,2 -130,1 18,-55 37,-188 61,-257 z"
       class="fil0"
       style="fill:#4d4d4d;fill-rule:nonzero;fill-opacity:1" /></g></svg>